<svg width="601" height="200" viewBox="0 0 601 200" fill="none" xmlns="http://www.w3.org/2000/svg">
<g clip-path="url(#clip0_116_2902)">
<path d="M115.221 196.588L115.202 186.147L109.965 194.789H108.637L103.399 186.278V196.588H100.594V180.823H103.025L109.329 191.246L115.557 180.823H117.97L118.008 196.588H115.221Z" fill="white"/>
<path d="M134.262 187.44C135.291 188.284 135.796 189.54 135.796 191.208C135.796 192.951 135.235 194.282 134.113 195.201C132.99 196.119 131.419 196.588 129.38 196.588H122.534V180.823H125.452V186.165H129.867C131.774 186.165 133.233 186.597 134.262 187.44ZM131.905 193.551C132.523 193.026 132.841 192.258 132.841 191.246C132.841 189.333 131.644 188.396 129.249 188.396H125.452V194.339H129.249C130.39 194.339 131.288 194.076 131.905 193.551ZM138.097 180.842H141.015V196.607H138.097V180.842Z" fill="white"/>
<path d="M167.556 194.114V199.944H164.826V196.588H152.611V199.944H149.862L149.881 194.114H150.554C151.564 194.076 152.256 193.345 152.668 191.92C153.06 190.496 153.322 188.471 153.416 185.828L153.603 180.823H165.274V194.114H167.556ZM155.492 191.208C155.23 192.558 154.819 193.533 154.257 194.132H162.338V183.335H156.109L155.997 186.128C155.922 188.152 155.754 189.84 155.492 191.208Z" fill="white"/>
<path d="M173.318 195.763C172.008 195.07 170.979 194.095 170.25 192.858C169.502 191.62 169.128 190.233 169.128 188.696C169.128 187.159 169.502 185.772 170.25 184.534C170.998 183.297 172.008 182.322 173.318 181.629C174.627 180.935 176.086 180.579 177.713 180.579C179.34 180.579 180.799 180.935 182.109 181.629C183.418 182.322 184.447 183.297 185.176 184.516C185.924 185.753 186.299 187.14 186.299 188.677C186.299 190.214 185.924 191.62 185.176 192.839C184.428 194.076 183.418 195.032 182.109 195.726C180.799 196.419 179.34 196.775 177.713 196.775C176.086 196.813 174.608 196.476 173.318 195.763ZM180.575 193.551C181.417 193.083 182.09 192.426 182.576 191.564C183.063 190.721 183.306 189.765 183.306 188.715C183.306 187.665 183.063 186.709 182.576 185.865C182.09 185.022 181.417 184.366 180.575 183.878C179.733 183.41 178.779 183.166 177.713 183.166C176.647 183.166 175.693 183.41 174.851 183.878C174.01 184.347 173.336 185.003 172.85 185.865C172.364 186.709 172.12 187.665 172.12 188.715C172.12 189.765 172.364 190.721 172.85 191.564C173.336 192.408 174.01 193.064 174.851 193.551C175.693 194.02 176.647 194.264 177.713 194.264C178.761 194.245 179.715 194.02 180.575 193.551Z" fill="white"/>
<path d="M204.18 196.588L204.162 186.147L198.924 194.789H197.596L192.359 186.278V196.588H189.553V180.823H191.985L198.288 191.246L204.517 180.823H206.93L206.967 196.588H204.18Z" fill="white"/>
<path d="M222.025 192.951H214.056L212.485 196.607H209.436L216.6 180.842H219.518L226.701 196.607H223.614L222.025 192.951ZM221.052 190.646L218.04 183.766L215.066 190.646H221.052Z" fill="white"/>
<path d="M231.788 193.532C232.144 193.87 232.312 194.32 232.312 194.882C232.312 195.126 232.275 195.37 232.219 195.632C232.162 195.894 232.013 196.288 231.788 196.813L230.629 199.981H228.796L229.712 196.532C229.375 196.401 229.114 196.176 228.927 195.894C228.74 195.594 228.646 195.257 228.646 194.863C228.646 194.301 228.814 193.851 229.17 193.514C229.525 193.176 229.955 192.989 230.498 192.989C231.04 192.989 231.433 193.195 231.788 193.532Z" fill="white"/>
<path d="M252.532 183.316H244.638L244.657 196.588H241.739V180.823H252.551L252.532 183.316Z" fill="white"/>
<path d="M268.824 194.114V199.944H266.093V196.588H253.879V199.944H251.129L251.148 194.114H251.821C252.831 194.076 253.523 193.345 253.935 191.92C254.328 190.496 254.589 188.471 254.683 185.828L254.87 180.823H266.542V194.114H268.824ZM256.759 191.208C256.497 192.558 256.086 193.533 255.525 194.132H263.605V183.335H257.376L257.264 186.128C257.189 188.152 257.021 189.84 256.759 191.208Z" fill="white"/>
<path d="M283.544 194.132V196.588H271.592V180.823H283.226V183.279H274.566V187.384H282.254V189.802H274.566V194.151H283.544V194.132Z" fill="white"/>
<path d="M293.14 180.842H305.541V183.26H296.058V187.14H300.771C302.679 187.14 304.138 187.534 305.129 188.321C306.121 189.108 306.626 190.252 306.626 191.733C306.626 193.289 306.083 194.507 304.98 195.351C303.895 196.194 302.324 196.626 300.322 196.626H293.158V180.842H293.14ZM300.154 194.339C301.295 194.339 302.155 194.114 302.754 193.682C303.353 193.251 303.633 192.614 303.633 191.789C303.633 190.177 302.473 189.352 300.154 189.352H296.058V194.32H300.154V194.339Z" fill="white"/>
<path d="M321.59 187.44C322.618 188.284 323.123 189.54 323.123 191.208C323.123 192.951 322.562 194.282 321.44 195.201C320.318 196.119 318.746 196.588 316.708 196.588H309.862V180.823H312.78V186.165H317.194C319.102 186.165 320.561 186.597 321.59 187.44ZM319.233 193.551C319.85 193.026 320.168 192.258 320.168 191.246C320.168 189.333 318.971 188.396 316.577 188.396H312.78V194.339H316.577C317.736 194.339 318.615 194.076 319.233 193.551ZM325.424 180.842H328.342V196.607H325.424V180.842Z" fill="white"/>
<path d="M353.724 196.588L353.705 186.147L348.468 194.789H347.14L341.903 186.278V196.588H339.097V180.823H341.529L347.832 191.246L354.061 180.823H356.474L356.511 196.588H353.724Z" fill="white"/>
<path d="M372.765 187.44C373.794 188.284 374.299 189.54 374.299 191.208C374.299 192.951 373.738 194.282 372.616 195.201C371.494 196.119 369.922 196.588 367.883 196.588H361.038V180.823H363.956V186.165H368.37C370.278 186.165 371.737 186.597 372.765 187.44ZM370.409 193.551C371.026 193.026 371.344 192.258 371.344 191.246C371.344 189.333 370.147 188.396 367.753 188.396H363.956V194.339H367.753C368.894 194.339 369.791 194.076 370.409 193.551ZM376.6 180.842H379.518V196.607H376.6V180.842Z" fill="white"/>
<path d="M404.414 180.842V196.607H401.459V189.858H393.228V196.607H390.273V180.842H393.228V187.346H401.459V180.842H404.414Z" fill="white"/>
<path d="M408.903 180.842H411.821V192.033L420.369 180.842H423.119V196.607H420.201V185.434L411.653 196.607H408.903V180.842Z" fill="white"/>
<path d="M433.874 180.842H446.275V183.26H436.792V187.14H441.505C443.413 187.14 444.872 187.534 445.863 188.321C446.855 189.108 447.36 190.252 447.36 191.733C447.36 193.289 446.817 194.507 445.714 195.351C444.629 196.194 443.058 196.626 441.056 196.626H433.892V180.842H433.874ZM440.888 194.339C442.029 194.339 442.889 194.114 443.488 193.682C444.087 193.251 444.367 192.614 444.367 191.789C444.367 190.177 443.207 189.352 440.888 189.352H436.792V194.32H440.888V194.339Z" fill="white"/>
<path d="M462.342 187.44C463.371 188.284 463.876 189.54 463.876 191.208C463.876 192.951 463.315 194.282 462.193 195.201C461.07 196.119 459.499 196.588 457.46 196.588H450.615V180.823H453.532V186.165H457.947C459.836 186.165 461.314 186.597 462.342 187.44ZM459.986 193.551C460.603 193.026 460.921 192.258 460.921 191.246C460.921 189.333 459.724 188.396 457.329 188.396H453.532V194.339H457.329C458.47 194.339 459.35 194.076 459.986 193.551ZM466.158 180.842H469.076V196.607H466.158V180.842Z" fill="white"/>
<path d="M487.014 180.842V196.607H484.096V183.335H477.811L477.68 187.271C477.605 189.483 477.418 191.264 477.138 192.633C476.857 194.001 476.39 195.051 475.754 195.763C475.118 196.476 474.239 196.832 473.116 196.832C472.723 196.832 472.181 196.757 471.508 196.607L471.713 194.057C471.919 194.114 472.144 194.151 472.387 194.151C473.303 194.151 473.977 193.608 474.351 192.52C474.744 191.433 474.968 189.708 475.062 187.384L475.286 180.86H487.014V180.842Z" fill="white"/>
<path d="M491.522 180.842H494.44V192.033L502.988 180.842H505.737V196.607H502.819V185.434L494.271 196.607H491.522V180.842Z" fill="white"/>
<path d="M84.7884 140.988C54.1501 138.232 27.9636 112.85 23.25 78.8077C22.5018 73.3901 22.3335 68.0288 22.7076 62.7799C22.9507 59.3682 23.3996 56.0314 24.1104 52.7509C24.073 52.7509 24.073 52.7509 24.0543 52.7509C12.607 54.3443 2.0389 46.4898 0.168428 35.1297C-0.130847 32.0554 8.61706e-05 29.0186 0.598636 26.0755C1.62739 20.4517 4.18993 15.2778 7.91217 11.0413C10.138 8.45432 12.7006 6.24231 15.6746 4.49894C18.0314 3.093 20.6126 1.98699 23.3248 1.2184C24.6903 0.824741 26.1118 0.543552 27.5708 0.337347C28.5621 0.206126 29.5161 0.0936508 30.4887 0.056159C35.221 -0.187538 39.8036 0.674774 43.9935 2.3619C52.6164 5.94237 59.2752 13.0658 62.0622 22.0451C66.3269 35.7671 59.2939 49.939 57.0307 63.4173C56.3012 67.7101 55.8523 72.1529 55.8523 76.5019C55.8149 88.2181 58.3026 99.8781 62.9413 110.619C65.4291 116.393 68.534 121.923 72.2189 127.022C74.0893 129.628 76.1094 132.14 78.2605 134.521C79.3453 135.702 80.4489 136.864 81.5899 137.988C82.1697 138.57 83.9654 140.913 84.7884 140.988Z" fill="white"/>
<path d="M109.348 8.39812C102.015 12.1473 95.5436 16.9088 90.0257 22.4013C67.0003 45.3463 60.2292 81.3947 75.754 111.932C86.7898 133.639 108.506 149.686 132.672 152.985C141.819 154.222 151.471 153.698 159.906 149.686C173.112 143.406 179.771 128.709 176.965 114.481C176.703 113.113 176.348 111.782 175.899 110.451C175.394 108.876 174.739 107.339 173.972 105.839C171.541 101.059 168.118 97.1037 164.078 94.1044C162.806 93.0921 161.122 91.9299 158.99 90.8988C156.876 89.8678 154.931 89.2304 153.36 88.8555C145.523 86.5873 136.862 87.2059 129.006 91.2175C127.622 91.9298 126.331 92.6984 125.097 93.5607C123.937 91.8736 122.852 90.074 121.88 88.1807C115.539 75.6959 115.501 61.674 120.608 49.8266C124.555 40.6973 131.513 32.8615 140.996 28.0251C160.355 18.146 183.643 24.0322 196.455 40.9597C197.821 42.7594 199.093 44.6902 200.178 46.7522C200.29 46.9397 200.383 47.1271 200.477 47.3146C201.132 48.3831 201.711 49.4891 202.291 50.6326C206.107 58.131 208.576 65.948 209.792 73.8401C210.222 76.6707 211.531 86.1936 209.717 97.5911C206.201 119.73 193.163 134.858 187.309 140.894C193.238 136.564 212.654 121.286 218.901 94.8542C222.548 79.4263 220.304 66.1355 219.724 63.0049C218.415 55.8815 216.058 48.8143 212.616 42.0283C194.809 6.93594 153.771 -8.56692 117.765 4.70518C114.94 5.75495 112.097 6.99218 109.348 8.39812Z" fill="#2AC3A5"/>
<path d="M242.88 139.188C235.361 136.226 229.151 131.877 224.288 126.179L245.854 100.984C249.015 104.902 252.139 107.808 255.188 109.72C258.237 111.632 261.417 112.569 264.69 112.569C268.88 112.569 272.078 111.332 274.285 108.876C276.493 106.421 277.596 102.784 277.596 97.9661V53.2759H237.194V23.3762H317.157V95.6041C317.157 111.613 313.004 123.629 304.681 131.634C296.357 139.638 284.162 143.65 268.094 143.65C258.798 143.65 250.4 142.169 242.88 139.188Z" fill="white"/>
<path d="M417.302 120.461H372.148L364.162 140.951H323.423L375.366 23.3763H414.758L466.701 140.951H425.27L417.302 120.461ZM406.266 91.9112L394.725 62.349L383.184 91.9112H406.266Z" fill="white"/>
<path d="M524.928 101.997L515.931 111.913V140.969H476.539V23.3763H515.931V66.0419L554.987 23.3763H598.625L551.096 75.1149L601 140.951H554.65L524.928 101.997Z" fill="white"/>
</g>
<defs>
<clipPath id="clip0_116_2902">
<rect width="601" height="200" fill="white"/>
</clipPath>
</defs>
</svg>
