<svg width="66" height="31" viewBox="0 0 66 31" fill="none" xmlns="http://www.w3.org/2000/svg">
<circle cx="42.0184" cy="14.5973" r="12.9287" fill="url(#paint0_linear_242_1788)"/>
<path d="M58.7236 14.6961C58.5441 14.8195 58.3197 14.9877 58.2412 15.0887C58.0954 15.2569 57.7925 15.3467 56.3118 15.6271C55.5378 15.7729 55.3583 15.9076 54.4721 17.0069C53.8215 17.8145 53.2382 18.1959 52.6437 18.1959C52.1053 18.1959 51.2864 17.8257 50.7928 17.3658C50.3441 16.9396 49.6598 15.8739 49.4243 15.2457C49.256 14.8082 49.1775 14.7185 48.9419 14.7185C48.7849 14.7185 48.5381 14.8195 48.3811 14.9428C48.2128 15.0775 47.9211 15.1672 47.6856 15.1672C46.9452 15.1672 45.9469 15.3803 45.7562 15.5822C45.5206 15.8402 45.3748 16.4011 45.5542 16.4011C45.6328 16.4011 45.7449 16.4796 45.8235 16.5806C45.9244 16.7264 46.0029 16.7376 46.1824 16.6367C46.3507 16.5469 46.5975 16.5469 47.0125 16.6255C47.3378 16.6928 47.6183 16.7601 47.6407 16.7825C47.7304 16.8723 46.9116 17.4107 46.4292 17.579C46.16 17.6799 45.386 17.8033 44.7017 17.8594L43.4678 17.9491L43.0191 17.635C42.5255 17.2985 41.5945 16.8162 41.2019 16.6928C41.056 16.6479 40.5176 16.345 39.9904 16.0085C39.4631 15.6832 38.8798 15.3803 38.7116 15.3355C38.3302 15.2569 37.6459 15.5149 37.2421 15.8963C37.085 16.0422 36.5802 16.3787 36.1203 16.6367C34.8752 17.3322 34.5835 17.5902 34.1124 18.4091C33.6188 19.2391 32.9794 19.9571 32.5644 20.1141C32.1606 20.2712 31.6333 20.2375 31.0052 20.0244C30.5901 19.8898 30.2424 19.6318 29.6142 18.9924C29.1543 18.5212 28.6719 17.9604 28.5485 17.7472C28.2569 17.2424 28.0437 17.2088 27.5726 17.6126C27.3707 17.7921 27.0566 17.9716 26.8659 18.0164C25.2618 18.3978 24.9028 18.6222 24.9028 19.2728C24.9028 19.4859 24.9477 19.643 25.0038 19.5981C25.0711 19.5645 25.1608 19.6205 25.2169 19.7215C25.3067 19.8898 25.3403 19.8898 25.6768 19.7215C26.0022 19.542 26.0358 19.542 26.1031 19.7215C26.2041 20.0019 26.0134 20.2263 25.3515 20.6301C24.7458 21.0003 23.2427 21.4153 22.9398 21.2919C22.8164 21.2471 22.7715 21.0452 22.7715 20.5516C22.7715 19.3065 22.2106 18.5212 20.7748 17.7248C20.2364 17.4219 19.7652 17.0517 19.3951 16.6143C18.6659 15.7842 18.0265 15.4476 17.3647 15.5598C16.142 15.7729 14.5828 16.6479 13.2927 17.8706C12.0027 19.0821 11.7335 19.2504 11.0492 19.2504C10.4098 19.2504 9.78167 18.9587 9.23201 18.4203C8.78331 17.9716 7.96443 16.7713 7.96443 16.5469C7.96443 16.2665 7.62791 15.7281 7.43721 15.7281C7.34747 15.7281 7.10069 15.8178 6.90999 15.9412C6.70807 16.0646 6.22572 16.188 5.77702 16.2329C4.58797 16.345 4.20657 16.4684 4.06075 16.7937C3.9037 17.1415 3.88127 17.5677 4.02709 17.478C4.08318 17.4443 4.15049 17.4892 4.18414 17.579C4.24023 17.7024 4.38605 17.7248 4.83475 17.6687L5.41806 17.6014L5.32832 18.151C5.28345 18.4539 5.1825 19.1831 5.10397 19.7664C5.03667 20.3609 4.87962 21.0227 4.77867 21.2471C4.57675 21.6621 3.88127 22.4586 3.713 22.4586C3.55596 22.4586 3.455 21.4826 3.57839 21.2359C3.76909 20.8993 3.72422 20.6526 3.41013 20.0132C3.15213 19.4859 3.06239 19.4186 2.61369 19.3065C2.22108 19.2055 2.13134 19.1382 2.19864 18.9924C2.24351 18.8914 2.2996 18.611 2.33325 18.3754C2.38934 17.8594 2.18743 17.635 1.73873 17.7248C1.37977 17.7921 1.26759 17.994 1.16663 18.768C1.12176 19.1045 1.03202 19.4971 0.953502 19.6542C0.762805 20.0468 0.594542 20.7647 0.403845 22.1108C0.168278 23.6588 0.179495 23.9056 0.47115 24.2197C0.717935 24.4777 0.717935 24.5001 0.583325 25.8575C0.504802 26.609 0.448715 27.383 0.448715 27.5737C0.448715 27.7644 0.347757 28.0561 0.224365 28.2019L1.52588e-05 28.4936L0.347757 28.5609C0.998372 28.6843 1.11055 28.6506 1.08811 28.3141C1.06568 28.0224 1.08811 28.0112 1.57046 28.0224C2.73708 28.0561 3.455 28.2019 3.51109 28.4151C3.55596 28.5721 3.62326 28.5945 3.88127 28.5272C4.43092 28.3814 4.44214 28.2468 4.11683 26.1379C3.94857 25.0722 3.78031 23.872 3.74666 23.4681L3.69057 22.739L4.17292 22.4025C4.94693 21.8528 5.2498 21.0564 5.4405 19.0597C5.51902 18.2744 5.64241 18.1623 5.76581 18.768C5.79946 18.9587 6.01259 19.2952 6.22572 19.5084C6.60712 19.8898 6.65199 19.901 7.26895 19.8561C7.87469 19.8 7.93078 19.8112 8.34583 20.1814C8.5814 20.4058 9.10862 20.7311 9.52366 20.933C10.2304 21.2583 10.3313 21.2807 11.4979 21.2583L12.7319 21.2359L12.9899 21.6397L13.2479 22.0547L13.0011 22.7278C12.7655 23.3784 12.2046 24.5226 11.8008 25.1732C11.6213 25.4649 11.6213 25.4985 11.812 25.8238C11.9915 26.1267 12.0027 26.2389 11.8793 26.811C11.6999 27.7084 11.1614 29.0657 10.8585 29.3798L10.6005 29.649L11.1502 29.6153L11.6999 29.5817L11.9579 28.4599C12.1037 27.843 12.2944 26.8783 12.3841 26.3062C12.5636 25.2069 12.687 24.8928 13.3713 23.8832C13.82 23.2326 14.0667 23.0867 14.1789 23.4345C14.3023 23.8159 14.1453 27.3494 13.977 28.2804C13.82 29.0993 13.7527 29.2676 13.4386 29.5368C13.0684 29.8509 13.0684 29.8509 13.3488 29.8621C13.5059 29.8621 13.8087 29.8958 14.0331 29.9294C14.4145 29.9967 14.4369 29.9855 14.4481 29.6826C14.493 28.4487 14.7174 26.5417 14.852 26.2949C14.9417 26.1267 14.9866 25.8575 14.9641 25.7116C14.9417 25.5546 14.9866 24.803 15.0651 24.029L15.1997 22.6268L16.2093 22.4473C16.7702 22.3576 17.6227 22.1445 18.1163 21.9874C19.9335 21.4041 20.0681 21.449 19.8886 22.5707C19.7764 23.2887 19.7989 23.3672 20.3373 24.0514C20.6065 24.388 20.6738 24.6348 20.7748 25.5209C20.8982 26.5193 20.887 26.6315 20.6402 27.2933C20.1578 28.6394 19.4848 29.8845 19.1819 29.9855C18.5874 30.2099 18.565 30.2435 19.0137 30.2996C19.7764 30.4118 19.9559 30.3332 20.0905 29.8172C20.1578 29.5705 20.4719 28.875 20.786 28.2917C21.8629 26.3286 21.8068 26.4856 21.6049 25.9023C21.4479 25.4312 21.3132 22.4137 21.4591 22.2791C21.4815 22.2454 21.5376 22.4922 21.5825 22.8063C21.6722 23.4681 21.7732 23.6813 22.2331 24.2646C22.4013 24.4777 22.6033 24.8367 22.6706 25.0498C22.9847 26.1155 23.1305 28.4936 22.951 29.6714C22.8837 30.1089 22.8052 30.2435 22.4686 30.4679L22.0648 30.7483L22.4574 30.8156C22.6818 30.8605 22.9734 30.8717 23.1193 30.8492C23.3885 30.8156 23.3885 30.7932 23.3885 29.5256C23.3997 28.8189 23.467 27.7757 23.5455 27.2148C23.6914 26.2389 23.6801 26.1491 23.4446 25.4312C23.1193 24.4441 22.7267 21.5836 22.9173 21.5612C22.9286 21.5499 23.1417 21.5275 23.3885 21.4939C24.241 21.3817 25.0711 21.1012 25.6656 20.7086L26.2489 20.3272L26.6864 20.7759C26.9332 21.0339 27.2136 21.2246 27.3595 21.2246C27.6399 21.2246 28.1559 20.7535 28.1559 20.4955C28.1559 20.2375 28.2793 20.2936 28.829 20.7872C29.5469 21.4378 30.1414 21.7967 30.8818 22.0323C31.7455 22.3015 32.4073 22.2903 33.3945 21.9986L34.1909 21.7631L34.5387 22.1333C34.7294 22.3464 34.8864 22.582 34.8864 22.6605C34.8976 23.0643 34.3816 25.0498 34.1461 25.5209C33.9441 25.9023 33.8993 26.1043 33.9778 26.2501C34.0788 26.4296 34.7967 26.8334 36.0979 27.3943L36.6812 27.6635V28.6394C36.6812 29.3798 36.6363 29.649 36.5017 29.7499C36.412 29.8397 36.2774 29.9967 36.2213 30.1201C36.1091 30.322 36.1315 30.3332 36.5915 30.2547C37.3655 30.1425 37.4889 30.0865 37.3655 29.9406C37.3094 29.8621 37.2982 29.6265 37.343 29.4134C37.4103 29.0769 37.4664 29.0208 37.7693 28.9871C37.9937 28.9647 38.1843 28.8525 38.2965 28.6731C38.4648 28.4263 38.4648 28.3702 38.3077 28.0897C38.0497 27.6074 37.7357 27.2933 37.4103 27.1699C37.1411 27.069 37.1187 27.0129 37.1748 26.6876C37.287 26.1716 37.2757 26.093 37.1523 25.0947C37.085 24.6011 37.0177 23.872 36.9953 23.4794L36.9616 22.7502L37.803 22.4586C38.2629 22.2903 39.1491 21.8977 39.7772 21.5724C41.3701 20.7647 41.5047 20.7872 41.5047 21.965C41.5047 22.5595 41.5272 22.6044 42.0993 23.1653C42.604 23.6701 42.7162 23.8832 42.9518 24.646C43.2547 25.678 43.2322 26.0482 42.7947 27.7869C42.4919 28.9647 42.3124 29.3349 41.9534 29.5256C41.5384 29.7499 41.6954 29.8958 42.2563 29.8172C42.5367 29.7836 42.806 29.7275 42.8284 29.6938C42.862 29.6714 42.9293 29.391 42.9742 29.0769C43.0191 28.7628 43.2883 27.8093 43.5687 26.9568L44.0623 25.4088L43.7931 24.8591C43.5239 24.3095 42.9181 21.6621 42.9967 21.3368C43.0191 21.2471 43.12 21.4714 43.2322 21.8416C43.3893 22.3576 43.5463 22.6044 43.9389 22.9634C44.5335 23.4906 44.7915 23.9617 45.2289 25.3078C45.5655 26.3398 45.7562 27.4391 45.7674 28.2917C45.7674 28.6955 45.7113 28.8301 45.4645 29.032C45.0495 29.3573 45.1841 29.4583 45.8459 29.3349C46.4629 29.2227 46.4629 29.2564 46.1712 27.9327C46.0702 27.4616 45.9917 26.5866 45.9917 25.9921C45.9917 24.9488 45.9805 24.8928 45.5542 24.1075C45.128 23.3223 44.354 20.9666 44.0848 19.5981C44.0062 19.2279 43.8716 18.7792 43.7819 18.611C43.6921 18.4315 43.6361 18.2744 43.6585 18.252C43.6809 18.2408 44.2194 18.1623 44.87 18.1062C45.5206 18.0389 46.1488 17.9491 46.2722 17.9155C46.4404 17.8706 46.575 17.9716 46.8106 18.3081C47.4051 19.1718 48.3362 19.4523 49.1102 18.9811L49.4804 18.7568L49.9515 19.1494C51.0396 20.0805 52.1613 20.3945 53.6308 20.1702L54.259 20.0805L54.5058 20.5067C54.6853 20.7984 54.7414 21.0339 54.6965 21.2471C54.5955 21.7631 53.9674 23.1989 53.6084 23.7149C53.2719 24.2197 53.1934 24.6348 53.4065 24.7694C53.586 24.8815 54.4721 26.7773 54.6404 27.4167C54.7862 27.9439 54.775 27.9551 54.4609 28.2917L54.1356 28.6282H54.4385C54.6068 28.6282 54.7414 28.6731 54.7414 28.7404C54.7414 28.8077 55.0442 28.8525 55.4369 28.8525C55.9641 28.8525 56.0987 28.8189 55.9977 28.7179C55.908 28.6282 55.908 28.5272 55.9977 28.3702C56.065 28.2468 56.1548 27.5625 56.2109 26.8558C56.2669 26.1491 56.3567 25.4088 56.4128 25.2181C56.4801 25.0274 56.5698 24.1524 56.6371 23.2662C56.6932 22.38 56.7605 21.6285 56.7942 21.606C56.8166 21.5724 57.1643 21.5051 57.557 21.4378C57.9496 21.3817 58.8582 21.1573 59.5873 20.933C60.3052 20.7086 61.0119 20.5516 61.1578 20.574C61.4046 20.6077 61.4158 20.6526 61.4158 21.4714C61.4158 22.2454 61.4494 22.3913 61.7074 22.7054C62.1561 23.2774 62.2346 23.4681 62.3693 24.4441C62.5151 25.5097 62.4814 25.6443 61.8869 27.0577C61.2812 28.4711 61.0568 28.8413 60.7315 28.9198C60.5857 28.9535 60.4174 29.0545 60.3389 29.1442C60.2267 29.2788 60.3165 29.3012 60.8325 29.3012C61.4158 29.3012 61.4494 29.29 61.584 28.9311C61.7186 28.5833 62.3356 27.327 63.0311 26.0033C63.3564 25.3751 63.3564 25.3415 63.1881 24.8928C62.9862 24.3319 62.8292 21.1461 63.0087 21.2583C63.076 21.3032 63.1545 21.5836 63.1881 21.8865C63.233 22.3015 63.3676 22.6156 63.6929 23.0419C64.2201 23.7598 64.366 24.1524 64.4445 25.1283C64.4894 25.5434 64.5679 26.0818 64.624 26.3398C64.7137 26.6651 64.7025 27.1138 64.624 27.8542C64.4557 29.2115 64.4445 29.2564 64.0519 29.4134C63.5695 29.6153 63.749 29.7499 64.4557 29.7499H65.0727L65.0054 28.7067C64.9493 27.9776 64.9829 27.3045 65.1175 26.3959C65.297 25.1508 65.297 25.1059 65.0839 24.4889C64.9605 24.1412 64.8259 23.7149 64.781 23.5242C64.6464 22.9297 64.3884 20.5067 64.3884 19.8112C64.3884 18.353 63.85 17.4892 62.4702 16.7376C62.0776 16.5245 61.4719 16.0534 61.1353 15.7056C59.9575 14.4829 59.4415 14.2698 58.7236 14.6961ZM48.7737 17.6911C49.2897 18.4651 49.3121 18.5324 49.1438 18.6895C48.6503 19.1382 47.4724 18.9475 47.0013 18.3417C46.676 17.9267 46.7209 17.7136 47.1696 17.478C47.3827 17.3658 47.6407 17.1751 47.7417 17.063C47.8538 16.9396 47.9997 16.8498 48.0782 16.8498C48.1455 16.8498 48.4596 17.2312 48.7737 17.6911ZM6.68564 17.9828C6.8539 18.1174 7.62791 19.3738 7.62791 19.5196C7.62791 19.6991 7.1119 19.7439 6.75294 19.5981C6.30424 19.4074 5.9565 18.8802 5.86676 18.252L5.79946 17.7248L6.18085 17.8033C6.39398 17.8482 6.61833 17.9267 6.68564 17.9828ZM27.8418 19.7327C27.954 19.8337 28.0437 19.9795 28.0437 20.0692C28.0437 20.3272 27.7297 20.8545 27.5277 20.933C27.1576 21.0676 26.5742 20.4955 26.4172 19.8449L26.3387 19.542H26.9893C27.4268 19.542 27.696 19.5981 27.8418 19.7327ZM55.7622 23.6701C55.7734 24.4553 55.7734 25.2742 55.7734 25.5097C55.7734 25.7341 55.7173 26.2725 55.6388 26.7212C55.5378 27.3382 55.4705 27.484 55.3583 27.3943C55.1676 27.2372 54.0683 24.7806 54.0683 24.5226C54.0683 24.2421 54.8535 22.8287 55.2349 22.4249C55.392 22.2567 55.5827 22.1445 55.6388 22.1781C55.7061 22.223 55.7622 22.8287 55.7622 23.6701ZM36.1989 24.2534C36.2662 24.5899 36.3335 25.0722 36.3335 25.3302C36.3447 25.577 36.4232 26.0257 36.5242 26.3174C36.6251 26.609 36.6812 26.8783 36.6476 26.9119C36.569 26.9792 35.1108 26.5193 34.9201 26.3623C34.8415 26.2949 34.7742 26.1491 34.7742 26.0369C34.7742 25.7677 35.0659 24.8928 35.4136 24.1636C35.7838 23.3784 36.0194 23.4121 36.1989 24.2534Z" fill="#151515"/>
<path d="M8.8331 6.83103L8.7752 3.41528C8.7752 3.25318 8.82538 3.11037 8.92573 2.98686C9.02608 2.86335 9.15731 2.8016 9.31941 2.8016C9.48151 2.8016 9.60502 2.86335 9.68993 2.98686C9.78256 3.10265 9.82888 3.26475 9.82888 3.47317C9.82888 3.68159 9.82116 4.09071 9.80572 4.70053C9.798 5.30263 9.79414 5.68087 9.79414 5.83525C10.2264 5.10965 10.8362 4.42264 11.6236 3.77422C12.4187 3.12581 13.0517 2.8016 13.5225 2.8016C13.7001 2.8016 13.8467 2.85564 13.9625 2.9637C14.086 3.07177 14.1478 3.21072 14.1478 3.38054C14.1478 3.55037 14.086 3.68931 13.9625 3.79738C13.8467 3.90545 13.7271 3.95948 13.6036 3.95948C13.4801 3.95948 13.3527 3.92861 13.2215 3.86685C13.098 3.79738 12.959 3.76264 12.8046 3.76264C12.6503 3.76264 12.4148 3.87843 12.0983 4.11001C11.7818 4.34159 11.4576 4.63492 11.1257 4.99C10.7938 5.34508 10.5005 5.71561 10.2457 6.10157L11.9362 7.80366C12.3608 8.22821 12.7313 8.59102 13.0478 8.89207C13.3643 9.19311 13.5997 9.42469 13.7541 9.58679C14.0397 9.89556 14.1825 10.1542 14.1825 10.3626C14.1825 10.7408 14.0204 10.9299 13.6962 10.9299C13.5109 10.9299 13.318 10.8412 13.1173 10.6636C12.9166 10.4784 12.6155 10.1426 12.2141 9.65627C11.5657 8.86119 10.7552 7.97734 9.78256 7.00472L9.82888 10.3278C9.82888 10.4899 9.78256 10.6327 9.68993 10.7563C9.60502 10.872 9.48151 10.9299 9.31941 10.9299C9.15731 10.9299 9.02608 10.872 8.92573 10.7563C8.82538 10.6327 8.7752 10.4899 8.7752 10.3278L8.8331 6.83103ZM18.9488 9.3089C19.0029 9.44785 19.1148 9.63697 19.2846 9.87627C19.4622 10.1078 19.5509 10.297 19.5509 10.4436C19.5509 10.5903 19.5123 10.7099 19.4351 10.8026C19.358 10.8875 19.2537 10.9299 19.1225 10.9299C18.806 10.9299 18.5243 10.6019 18.2773 9.94574L18.1846 9.691C17.791 10.517 17.2004 10.9299 16.4131 10.9299C16.0194 10.9299 15.6913 10.8064 15.4289 10.5594C15.1741 10.3047 15.0468 9.98819 15.0468 9.60995C15.0468 9.02329 15.2475 8.51768 15.6489 8.09313C16.0503 7.66857 16.5752 7.44085 17.2236 7.40997C17.0692 7.1398 16.8955 6.9391 16.7025 6.80788C16.5173 6.66893 16.3475 6.58788 16.1931 6.56472C16.0387 6.54156 15.892 6.52998 15.7531 6.52998C15.6219 6.52226 15.5176 6.49139 15.4404 6.43735C15.3633 6.38332 15.3247 6.27911 15.3247 6.12472C15.3247 5.96262 15.3864 5.83139 15.5099 5.73104C15.6411 5.63069 15.7955 5.58052 15.9731 5.58052C16.4748 5.58052 16.9689 5.83139 17.4552 6.33314C17.9415 6.83489 18.366 7.62225 18.7288 8.69522L18.9488 9.3089ZM16.9341 8.02365C16.6562 8.02365 16.4054 8.11628 16.1815 8.30154C15.9654 8.48681 15.8573 8.7261 15.8573 9.01943C15.8573 9.31276 15.9538 9.55978 16.1468 9.76048C16.3475 9.95346 16.5868 10.0499 16.8646 10.0499C17.1425 10.0499 17.3818 9.95346 17.5825 9.76048C17.7832 9.55978 17.8836 9.32434 17.8836 9.05417C17.8836 8.86119 17.8488 8.68365 17.7794 8.52154C17.7099 8.35172 17.6674 8.24751 17.652 8.20891C17.4513 8.08541 17.212 8.02365 16.9341 8.02365ZM21.6118 8.13944L21.7044 10.2352C21.7044 10.4436 21.6504 10.6135 21.5423 10.7447C21.442 10.8682 21.3185 10.9299 21.1718 10.9299C21.0251 10.9299 20.9055 10.872 20.8128 10.7563C20.7202 10.6327 20.6739 10.4668 20.6739 10.2584C20.6739 10.0499 20.6932 9.75276 20.7318 9.3668C20.809 8.59488 20.8476 7.9426 20.8476 7.40997C20.8476 7.1784 20.7742 6.9584 20.6276 6.74998C20.4886 6.53384 20.4192 6.34086 20.4192 6.17104C20.4192 6.00122 20.4771 5.86227 20.5928 5.7542C20.7086 5.63841 20.8399 5.58052 20.9865 5.58052C21.3725 5.58052 21.5655 5.88543 21.5655 6.49525V6.94682C21.797 6.52998 22.0749 6.19806 22.3991 5.95104C22.7234 5.70403 23.0205 5.58052 23.2907 5.58052C23.5609 5.58052 23.7654 5.64999 23.9044 5.78894C24.0511 5.92017 24.1244 6.09771 24.1244 6.32156C24.1244 6.54542 24.0704 6.73454 23.9623 6.88893C23.8542 7.03559 23.7384 7.10893 23.6149 7.10893C23.4914 7.10893 23.3949 7.07805 23.3255 7.01629C23.2637 6.94682 23.2174 6.87735 23.1865 6.80788C23.1556 6.73068 23.0977 6.66121 23.0128 6.59946C22.9279 6.52998 22.8198 6.49525 22.6886 6.49525C22.4648 6.49525 22.2409 6.64191 22.017 6.93524C21.7932 7.22857 21.6581 7.62997 21.6118 8.13944ZM28.775 9.3089C28.829 9.44785 28.941 9.63697 29.1108 9.87627C29.2883 10.1078 29.3771 10.297 29.3771 10.4436C29.3771 10.5903 29.3385 10.7099 29.2613 10.8026C29.1841 10.8875 29.0799 10.9299 28.9487 10.9299C28.6322 10.9299 28.3504 10.6019 28.1034 9.94574L28.0108 9.691C27.6171 10.517 27.0266 10.9299 26.2392 10.9299C25.8456 10.9299 25.5175 10.8064 25.255 10.5594C25.0003 10.3047 24.8729 9.98819 24.8729 9.60995C24.8729 9.02329 25.0736 8.51768 25.475 8.09313C25.8764 7.66857 26.4013 7.44085 27.0498 7.40997C26.8954 7.1398 26.7217 6.9391 26.5287 6.80788C26.3435 6.66893 26.1736 6.58788 26.0192 6.56472C25.8649 6.54156 25.7182 6.52998 25.5793 6.52998C25.448 6.52226 25.3438 6.49139 25.2666 6.43735C25.1894 6.38332 25.1508 6.27911 25.1508 6.12472C25.1508 5.96262 25.2126 5.83139 25.3361 5.73104C25.4673 5.63069 25.6217 5.58052 25.7992 5.58052C26.301 5.58052 26.795 5.83139 27.2813 6.33314C27.7676 6.83489 28.1922 7.62225 28.555 8.69522L28.775 9.3089ZM26.7603 8.02365C26.4824 8.02365 26.2315 8.11628 26.0077 8.30154C25.7915 8.48681 25.6835 8.7261 25.6835 9.01943C25.6835 9.31276 25.7799 9.55978 25.9729 9.76048C26.1736 9.95346 26.4129 10.0499 26.6908 10.0499C26.9687 10.0499 27.208 9.95346 27.4087 9.76048C27.6094 9.55978 27.7098 9.32434 27.7098 9.05417C27.7098 8.86119 27.675 8.68365 27.6055 8.52154C27.5361 8.35172 27.4936 8.24751 27.4782 8.20891C27.2775 8.08541 27.0382 8.02365 26.7603 8.02365ZM31.2924 10.9299C31.1535 10.9299 31.03 10.872 30.9219 10.7563C30.8215 10.6327 30.7443 10.4861 30.6903 10.3163C30.2117 8.75698 29.791 7.59138 29.4282 6.81945C29.2816 6.48753 29.2082 6.24437 29.2082 6.08999C29.2082 5.9356 29.2507 5.8121 29.3356 5.71947C29.4205 5.62684 29.5286 5.58052 29.6598 5.58052C29.8605 5.58052 30.0226 5.73104 30.1461 6.03209C30.2773 6.33314 30.5128 6.95068 30.8524 7.88471C31.1998 8.81101 31.4082 9.3861 31.4777 9.60995C31.5471 9.82609 31.5935 9.96504 31.6166 10.0268L31.6514 10.1426C31.8675 9.99591 32.1106 9.691 32.3808 9.22785C32.6587 8.7647 32.8478 8.3054 32.9482 7.84997C32.8015 7.45629 32.6587 7.10507 32.5198 6.7963C32.3808 6.47981 32.3113 6.24437 32.3113 6.08999C32.3113 5.9356 32.3538 5.8121 32.4387 5.71947C32.5236 5.62684 32.6317 5.58052 32.7629 5.58052C32.9636 5.58052 33.1257 5.73104 33.2492 6.03209C33.3805 6.33314 33.6159 6.95068 33.9555 7.88471C34.3029 8.81101 34.5113 9.3861 34.5808 9.60995C34.6503 9.82609 34.6966 9.96504 34.7197 10.0268L34.7545 10.1426C35.0324 9.95732 35.3296 9.55592 35.646 8.93838C35.9703 8.31312 36.1324 7.74962 36.1324 7.24787C36.1324 7.07805 36.086 6.87735 35.9934 6.64577C35.9008 6.40648 35.8545 6.22122 35.8545 6.08999C35.8545 5.95876 35.9046 5.84297 36.005 5.74262C36.1131 5.63455 36.2559 5.58052 36.4334 5.58052C36.611 5.58052 36.7538 5.66543 36.8618 5.83525C36.9776 6.00508 37.0355 6.29069 37.0355 6.69209C37.0355 7.09349 36.9004 7.63769 36.6302 8.3247C36.3678 9.01171 36.0243 9.61767 35.5997 10.1426C35.1752 10.6675 34.7738 10.9299 34.3955 10.9299C34.1331 10.9299 33.9324 10.7254 33.7934 10.3163C33.7626 10.2313 33.6931 10.0191 33.585 9.67943L33.2955 8.83417C33.0099 9.42855 32.6857 9.92644 32.3229 10.3278C31.9601 10.7292 31.6166 10.9299 31.2924 10.9299ZM41.6881 9.3089C41.7422 9.44785 41.8541 9.63697 42.0239 9.87627C42.2014 10.1078 42.2902 10.297 42.2902 10.4436C42.2902 10.5903 42.2516 10.7099 42.1744 10.8026C42.0972 10.8875 41.993 10.9299 41.8618 10.9299C41.5453 10.9299 41.2636 10.6019 41.0165 9.94574L40.9239 9.691C40.5302 10.517 39.9397 10.9299 39.1524 10.9299C38.7587 10.9299 38.4306 10.8064 38.1682 10.5594C37.9134 10.3047 37.7861 9.98819 37.7861 9.60995C37.7861 9.02329 37.9868 8.51768 38.3881 8.09313C38.7895 7.66857 39.3145 7.44085 39.9629 7.40997C39.8085 7.1398 39.6348 6.9391 39.4418 6.80788C39.2566 6.66893 39.0867 6.58788 38.9324 6.56472C38.778 6.54156 38.6313 6.52998 38.4924 6.52998C38.3611 6.52226 38.2569 6.49139 38.1797 6.43735C38.1025 6.38332 38.0639 6.27911 38.0639 6.12472C38.0639 5.96262 38.1257 5.83139 38.2492 5.73104C38.3804 5.63069 38.5348 5.58052 38.7124 5.58052C39.2141 5.58052 39.7081 5.83139 40.1944 6.33314C40.6808 6.83489 41.1053 7.62225 41.4681 8.69522L41.6881 9.3089ZM39.6734 8.02365C39.3955 8.02365 39.1446 8.11628 38.9208 8.30154C38.7046 8.48681 38.5966 8.7261 38.5966 9.01943C38.5966 9.31276 38.6931 9.55978 38.886 9.76048C39.0867 9.95346 39.326 10.0499 39.6039 10.0499C39.8818 10.0499 40.1211 9.95346 40.3218 9.76048C40.5225 9.55978 40.6229 9.32434 40.6229 9.05417C40.6229 8.86119 40.5881 8.68365 40.5187 8.52154C40.4492 8.35172 40.4067 8.24751 40.3913 8.20891C40.1906 8.08541 39.9513 8.02365 39.6734 8.02365ZM44.2353 7.54892L44.3048 10.3742C44.3048 10.5363 44.2584 10.6713 44.1658 10.7794C44.0732 10.8798 43.9535 10.9299 43.8069 10.9299C43.6602 10.9299 43.5328 10.8798 43.4248 10.7794C43.3244 10.6713 43.2742 10.5363 43.2742 10.3742L43.3553 8.08155C43.3553 8.08155 43.3283 7.43699 43.2742 6.14788C43.2742 5.98578 43.3244 5.85069 43.4248 5.74262C43.5328 5.63455 43.6602 5.58052 43.8069 5.58052C43.9535 5.58052 44.0732 5.63455 44.1658 5.74262C44.2584 5.84297 44.3048 5.97034 44.3048 6.12472C44.3048 6.27911 44.3009 6.3949 44.2932 6.47209C44.7254 5.87771 45.2233 5.58052 45.7868 5.58052C46.5974 5.58052 47.1184 6.12472 47.35 7.21313L47.79 9.20469C47.8363 9.38224 47.9289 9.57522 48.0679 9.78363C48.2145 9.98433 48.2879 10.1657 48.2879 10.3278C48.2879 10.7292 48.0949 10.9299 47.7089 10.9299C47.323 10.9299 47.0721 10.625 46.9563 10.0152L46.5163 7.59524C46.3696 6.82331 45.9721 6.43735 45.3237 6.43735C44.9918 6.43735 44.7332 6.54928 44.5479 6.77314C44.3626 6.997 44.2584 7.25559 44.2353 7.54892Z" fill="black"/>
<defs>
<linearGradient id="paint0_linear_242_1788" x1="42.0184" y1="1.66851" x2="42.073" y2="13.9972" gradientUnits="userSpaceOnUse">
<stop stop-color="#FF6F00"/>
<stop offset="0.961538" stop-color="#FAF16D" stop-opacity="0.02"/>
</linearGradient>
</defs>
</svg>
