<svg width="26" height="23" viewBox="0 0 26 23" fill="none" xmlns="http://www.w3.org/2000/svg">
<path d="M0.335156 0.0964851C0.101562 0.253906 0 0.446875 0 0.761719C0 1.07656 0.101562 1.26953 0.335156 1.42695C0.472266 1.51836 0.604297 1.52344 2.19375 1.52344H3.90508L3.97617 1.76211C4.0168 1.89922 4.84453 4.78867 5.81445 8.19102L7.58164 14.3762L7.37344 14.818C7.13477 15.3207 7.06367 15.5949 7.05859 15.9961C7.05859 16.7629 7.48516 17.55 8.13516 17.9563C8.5668 18.2305 8.85117 18.2812 9.96328 18.2812L10.9941 18.2863L10.7199 18.3828C10.1207 18.6012 9.66875 19.0074 9.3793 19.5965C9.22187 19.9215 9.2168 19.957 9.2168 20.5664C9.2168 21.1859 9.22188 21.2113 9.38945 21.5566C9.61797 22.0238 10.0191 22.425 10.4863 22.6535C10.8316 22.8211 10.857 22.8262 11.4766 22.8262C12.0961 22.8262 12.1215 22.8211 12.4668 22.6535C12.934 22.425 13.3352 22.0238 13.5637 21.5566C13.7312 21.2113 13.7363 21.1859 13.7363 20.5664C13.7363 19.957 13.7312 19.9215 13.5738 19.5965C13.2844 19.0074 12.8324 18.6012 12.2332 18.3828L11.959 18.2863H15.3105H18.6621L18.3879 18.3828C17.7887 18.6012 17.3367 19.0074 17.0473 19.5965C16.8898 19.9215 16.8848 19.957 16.8848 20.5664C16.8848 21.1859 16.8898 21.2113 17.0574 21.5566C17.2859 22.0238 17.6871 22.425 18.1543 22.6535C18.4996 22.8211 18.525 22.8262 19.1445 22.8262C19.7641 22.8262 19.7895 22.8211 20.1348 22.6535C20.602 22.425 21.0031 22.0238 21.2316 21.5566C21.3992 21.2113 21.4043 21.1859 21.4043 20.5664C21.4043 19.957 21.3992 19.9215 21.2418 19.5965C20.9523 19.0074 20.5004 18.6012 19.9012 18.3828L19.627 18.2863L21.0488 18.2812C22.3539 18.2812 22.4809 18.2711 22.618 18.1848C22.8516 18.0273 22.9531 17.8344 22.9531 17.5195C22.9531 17.2047 22.8516 17.0117 22.618 16.8543C22.4758 16.7629 22.2523 16.7578 15.9707 16.7578C11.6695 16.7578 9.39453 16.7375 9.24219 16.702C8.97812 16.641 8.80039 16.4988 8.70391 16.2652C8.60234 16.0266 8.61758 15.9047 8.78516 15.5543L8.93242 15.2344H15.6965C22.3438 15.2344 22.4605 15.2344 22.623 15.1328C22.7094 15.077 22.8211 14.9602 22.8668 14.8688C23.0293 14.5488 26 4.02695 26 3.77305C26 3.49883 25.8883 3.29063 25.6648 3.14336C25.5227 3.05195 18.4758 3 9 3H5.97527L6.39232 5.94116L7.58164 9.7375L8.85788 13.812L5.8957 2.70156C5.83984 2.51367 5.66719 1.91445 5.51484 1.37109C5.2457 0.436718 5.21523 0.370703 5.02734 0.187891L4.8293 0H2.65586C0.614453 0 0.472266 0.00507927 0.335156 0.0964851Z" fill="#00DDB3"/>
</svg>
