<svg width="25" height="25" viewBox="0 0 25 25" fill="none" xmlns="http://www.w3.org/2000/svg">
<path d="M5.34271 10.1682C7.19082 10.1682 8.11652 10.1665 8.62396 10.1506C8.87927 10.1426 8.98853 10.132 9.039 10.1243C9.05879 10.1212 9.05733 10.1226 9.10052 10.1067C9.2541 10.048 9.44123 9.87256 9.53021 9.71216L9.56146 9.6438C9.57681 9.60222 9.57607 9.60356 9.57904 9.58423C9.58682 9.53378 9.59742 9.42459 9.60541 9.16919C9.62128 8.66177 9.62299 7.73563 9.62299 5.88696C9.62299 4.03885 9.62127 3.11315 9.60541 2.60571C9.59742 2.35034 9.58682 2.24113 9.57904 2.19067C9.57601 2.171 9.57712 2.17253 9.56146 2.13013C9.49475 1.95449 9.27518 1.73493 9.09955 1.66821L9.09076 1.66431C9.04577 1.64681 9.05242 1.64993 9.03802 1.64771C8.99073 1.64033 8.88379 1.6296 8.62689 1.62231C8.11734 1.60787 7.1875 1.60953 5.32611 1.61255H5.32416C3.48206 1.61255 2.5502 1.61396 2.03802 1.62915C1.78005 1.63681 1.66734 1.64773 1.6142 1.65552C1.59455 1.65839 1.59683 1.65806 1.5722 1.66724C1.40553 1.73768 1.18495 1.96114 1.12494 2.12329V2.12427C1.10706 2.17254 1.10857 2.17016 1.10541 2.19067C1.09763 2.24115 1.08703 2.3504 1.07904 2.60571C1.06318 3.11315 1.06146 4.03886 1.06146 5.88696C1.06146 7.73562 1.06317 8.66177 1.07904 9.16919C1.08703 9.42459 1.09763 9.53378 1.10541 9.58423C1.10838 9.60358 1.10766 9.60227 1.12299 9.6438C1.1895 9.81958 1.40907 10.041 1.5849 10.1077C1.62698 10.1232 1.62601 10.1213 1.64545 10.1243C1.6959 10.132 1.80509 10.1426 2.06049 10.1506C2.5679 10.1665 3.49406 10.1682 5.34271 10.1682Z" stroke="#969696" stroke-width="2"/>
<path d="M18.7852 10.1682C20.6333 10.1682 21.559 10.1665 22.0664 10.1506C22.3217 10.1426 22.431 10.132 22.4814 10.1243C22.5012 10.1212 22.4998 10.1226 22.543 10.1067C22.6965 10.048 22.8837 9.87256 22.9727 9.71216L23.0039 9.6438C23.0193 9.60222 23.0185 9.60356 23.0215 9.58423C23.0293 9.53378 23.0399 9.42459 23.0479 9.16919C23.0637 8.66177 23.0654 7.73563 23.0654 5.88696C23.0654 4.03885 23.0637 3.11315 23.0479 2.60571C23.0399 2.35034 23.0293 2.24113 23.0215 2.19067C23.0185 2.171 23.0196 2.17253 23.0039 2.13013C22.9372 1.95449 22.7176 1.73493 22.542 1.66821L22.5332 1.66431C22.4882 1.64681 22.4949 1.64993 22.4805 1.64771C22.4332 1.64033 22.3262 1.6296 22.0693 1.62231C21.5598 1.60787 20.6299 1.60953 18.7686 1.61255H18.7666C16.9245 1.61255 15.9926 1.61396 15.4805 1.62915C15.2225 1.63681 15.1098 1.64773 15.0566 1.65552C15.037 1.65839 15.0393 1.65806 15.0146 1.66724C14.848 1.73768 14.6274 1.96114 14.5674 2.12329V2.12427C14.5495 2.17254 14.551 2.17016 14.5479 2.19067C14.5401 2.24115 14.5295 2.3504 14.5215 2.60571C14.5056 3.11315 14.5039 4.03886 14.5039 5.88696C14.5039 7.73562 14.5056 8.66177 14.5215 9.16919C14.5295 9.42459 14.5401 9.53378 14.5479 9.58423C14.5508 9.60358 14.5501 9.60227 14.5654 9.6438C14.6319 9.81958 14.8515 10.041 15.0273 10.1077C15.0694 10.1232 15.0685 10.1213 15.0879 10.1243C15.1383 10.132 15.2475 10.1426 15.5029 10.1506C16.0103 10.1665 16.9365 10.1682 18.7852 10.1682Z" stroke="#969696" stroke-width="2"/>
<path d="M5.34274 23.6104C7.19085 23.6104 8.11655 23.6086 8.62399 23.5928C8.87931 23.5848 8.98856 23.5742 9.03903 23.5664C9.05882 23.5634 9.05736 23.5648 9.10056 23.5488C9.25413 23.4901 9.44126 23.3147 9.53024 23.1543L9.56149 23.0859C9.57684 23.0444 9.5761 23.0457 9.57907 23.0264C9.58685 22.9759 9.59745 22.8667 9.60544 22.6113C9.62131 22.1039 9.62302 21.1778 9.62302 19.3291C9.62302 17.481 9.6213 16.5553 9.60544 16.0479C9.59745 15.7925 9.58685 15.6833 9.57907 15.6328C9.57604 15.6131 9.57715 15.6147 9.56149 15.5723C9.49478 15.3966 9.27521 15.1771 9.09958 15.1104L9.09079 15.1064C9.0458 15.0889 9.05245 15.0921 9.03806 15.0898C8.99076 15.0825 8.88382 15.0717 8.62692 15.0645C8.11737 15.05 7.18753 15.0517 5.32614 15.0547H5.32419C3.48209 15.0547 2.55023 15.0561 2.03806 15.0713C1.78008 15.0789 1.66737 15.0899 1.61423 15.0977C1.59458 15.1005 1.59687 15.1002 1.57224 15.1094C1.40556 15.1798 1.18498 15.4033 1.12497 15.5654V15.5664C1.10709 15.6147 1.1086 15.6123 1.10544 15.6328C1.09766 15.6833 1.08706 15.7925 1.07907 16.0479C1.06321 16.5553 1.06149 17.481 1.06149 19.3291C1.06149 21.1778 1.0632 22.1039 1.07907 22.6113C1.08706 22.8667 1.09766 22.9759 1.10544 23.0264C1.10841 23.0457 1.10769 23.0444 1.12302 23.0859C1.18953 23.2617 1.4091 23.4831 1.58493 23.5498C1.62701 23.5653 1.62604 23.5634 1.64548 23.5664C1.69593 23.5742 1.80512 23.5848 2.06052 23.5928C2.56794 23.6086 3.49409 23.6104 5.34274 23.6104Z" stroke="#969696" stroke-width="2"/>
<path d="M18.8102 23.5803C19.303 23.5772 19.5078 23.5718 19.6471 23.5559C19.746 23.5446 19.8113 23.5289 20.0318 23.4563H20.0328C21.5925 22.9447 22.6474 21.7867 22.9937 20.2551C23.0385 20.0565 23.0701 19.7041 23.066 19.2961C23.0619 18.8911 23.0228 18.522 22.9703 18.2952C22.6062 16.7824 21.3317 15.5069 19.8189 15.1428C19.5835 15.0882 19.1959 15.0495 18.774 15.0481C18.3468 15.0467 17.9894 15.0836 17.8023 15.1311C16.2565 15.5262 15.1638 16.544 14.6578 18.0813V18.0823C14.5852 18.3028 14.5695 18.3681 14.5582 18.467C14.5424 18.6058 14.5369 18.8097 14.5338 19.2991C14.5338 20.1131 14.5607 20.2613 14.608 20.4299C15.0247 21.8607 16.0224 22.922 17.4029 23.4153L17.6842 23.5061C17.8525 23.5534 18 23.5802 18.8102 23.5803Z" stroke="#969696" stroke-width="2"/>
</svg>
