<svg width="27" height="27" viewBox="0 0 27 27" fill="none" xmlns="http://www.w3.org/2000/svg">
<path d="M6.34274 10.6604C8.19085 10.6604 9.11655 10.6587 9.62399 10.6428C9.87931 10.6348 9.98856 10.6242 10.039 10.6165C10.0588 10.6134 10.0574 10.6148 10.1006 10.5989C10.2541 10.5402 10.4413 10.3647 10.5302 10.2043L10.5615 10.136C10.5768 10.0944 10.5761 10.0957 10.5791 10.0764C10.5868 10.026 10.5974 9.91678 10.6054 9.66138C10.6213 9.15396 10.623 8.22782 10.623 6.37915C10.623 4.53103 10.6213 3.60534 10.6054 3.0979C10.5974 2.84252 10.5868 2.73332 10.5791 2.68286C10.576 2.66319 10.5771 2.66471 10.5615 2.62231C10.4948 2.44668 10.2752 2.22712 10.0996 2.1604L10.0908 2.15649C10.0458 2.139 10.0524 2.14211 10.0381 2.13989C9.99076 2.13251 9.88382 2.12179 9.62692 2.1145C9.11737 2.10006 8.18753 2.10172 6.32614 2.10474H6.32419C4.48209 2.10474 3.55023 2.10615 3.03806 2.12134C2.78008 2.129 2.66737 2.13992 2.61423 2.14771C2.59458 2.15058 2.59687 2.15025 2.57224 2.15942C2.40556 2.22987 2.18498 2.45333 2.12497 2.61548V2.61646C2.10709 2.66473 2.1086 2.66234 2.10544 2.68286C2.09766 2.73334 2.08706 2.84259 2.07907 3.0979C2.06321 3.60534 2.06149 4.53104 2.06149 6.37915C2.06149 8.22781 2.0632 9.15396 2.07907 9.66138C2.08706 9.91678 2.09766 10.026 2.10544 10.0764C2.10841 10.0958 2.10769 10.0945 2.12302 10.136C2.18953 10.3118 2.4091 10.5332 2.58493 10.5999C2.62701 10.6154 2.62604 10.6135 2.64548 10.6165C2.69593 10.6242 2.80512 10.6348 3.06052 10.6428C3.56794 10.6587 4.49409 10.6604 6.34274 10.6604Z" fill="#00DDB3" stroke="#00DDB3" stroke-width="2"/>
<path d="M19.7852 10.6604C21.6333 10.6604 22.559 10.6587 23.0664 10.6428C23.3217 10.6348 23.431 10.6242 23.4815 10.6165C23.5013 10.6134 23.4998 10.6148 23.543 10.5989C23.6966 10.5402 23.8837 10.3647 23.9727 10.2043L24.0039 10.136C24.0193 10.0944 24.0185 10.0957 24.0215 10.0764C24.0293 10.026 24.0399 9.91678 24.0479 9.66138C24.0638 9.15396 24.0655 8.22782 24.0655 6.37915C24.0655 4.53103 24.0637 3.60534 24.0479 3.0979C24.0399 2.84252 24.0293 2.73332 24.0215 2.68286C24.0185 2.66319 24.0196 2.66471 24.0039 2.62231C23.9372 2.44668 23.7177 2.22712 23.542 2.1604L23.5332 2.15649C23.4882 2.139 23.4949 2.14211 23.4805 2.13989C23.4332 2.13251 23.3263 2.12179 23.0694 2.1145C22.5598 2.10006 21.63 2.10172 19.7686 2.10474H19.7666C17.9245 2.10474 16.9927 2.10615 16.4805 2.12134C16.2225 2.129 16.1098 2.13992 16.0567 2.14771C16.037 2.15058 16.0393 2.15025 16.0147 2.15942C15.848 2.22987 15.6274 2.45333 15.5674 2.61548V2.61646C15.5495 2.66473 15.551 2.66234 15.5479 2.68286C15.5401 2.73334 15.5295 2.84259 15.5215 3.0979C15.5056 3.60534 15.5039 4.53104 15.5039 6.37915C15.5039 8.22781 15.5056 9.15396 15.5215 9.66138C15.5295 9.91678 15.5401 10.026 15.5479 10.0764C15.5509 10.0958 15.5501 10.0945 15.5655 10.136C15.632 10.3118 15.8515 10.5332 16.0274 10.5999C16.0695 10.6154 16.0685 10.6135 16.0879 10.6165C16.1384 10.6242 16.2476 10.6348 16.503 10.6428C17.0104 10.6587 17.9365 10.6604 19.7852 10.6604Z" fill="#00DDB3" stroke="#00DDB3" stroke-width="2"/>
<path d="M6.34277 24.1025C8.19088 24.1025 9.11658 24.1008 9.62402 24.085C9.87934 24.077 9.98859 24.0664 10.0391 24.0586C10.0589 24.0555 10.0574 24.057 10.1006 24.041C10.2542 23.9823 10.4413 23.8069 10.5303 23.6465L10.5615 23.5781C10.5769 23.5365 10.5761 23.5379 10.5791 23.5186C10.5869 23.4681 10.5975 23.3589 10.6055 23.1035C10.6213 22.5961 10.623 21.67 10.623 19.8213C10.623 17.9732 10.6213 17.0475 10.6055 16.54C10.5975 16.2847 10.5869 16.1755 10.5791 16.125C10.5761 16.1053 10.5772 16.1069 10.5615 16.0645C10.4948 15.8888 10.2752 15.6693 10.0996 15.6025L10.0908 15.5986C10.0458 15.5811 10.0525 15.5843 10.0381 15.582C9.99079 15.5747 9.88385 15.5639 9.62695 15.5566C9.1174 15.5422 8.18756 15.5439 6.32617 15.5469H6.32422C4.48212 15.5469 3.55027 15.5483 3.03809 15.5635C2.78011 15.5711 2.6674 15.5821 2.61426 15.5898C2.59461 15.5927 2.5969 15.5924 2.57227 15.6016C2.40559 15.672 2.18501 15.8955 2.125 16.0576V16.0586C2.10712 16.1069 2.10863 16.1045 2.10547 16.125C2.09769 16.1755 2.08709 16.2847 2.0791 16.54C2.06324 17.0475 2.06152 17.9732 2.06152 19.8213C2.06152 21.6699 2.06323 22.5961 2.0791 23.1035C2.08709 23.3589 2.09769 23.4681 2.10547 23.5186C2.10844 23.5379 2.10772 23.5366 2.12305 23.5781C2.18956 23.7539 2.40913 23.9753 2.58496 24.042C2.62704 24.0575 2.62607 24.0556 2.64551 24.0586C2.69596 24.0664 2.80515 24.077 3.06055 24.085C3.56797 24.1008 4.49412 24.1025 6.34277 24.1025Z" fill="#00DDB3" stroke="#00DDB3" stroke-width="2"/>
<path d="M19.8102 24.0725C20.303 24.0694 20.5078 24.064 20.6471 24.0481C20.746 24.0368 20.8113 24.0211 21.0319 23.9485H21.0328C22.5925 23.4369 23.6474 22.2789 23.9938 20.7473C24.0385 20.5487 24.0702 20.1963 24.066 19.7883C24.0619 19.3833 24.0228 19.0142 23.9703 18.7874C23.6062 17.2746 22.3317 15.9991 20.819 15.635C20.5836 15.5804 20.1959 15.5417 19.774 15.5403C19.3468 15.5389 18.9894 15.5758 18.8024 15.6233C17.2565 16.0184 16.1638 17.0362 15.6578 18.5735V18.5745C15.5853 18.795 15.5695 18.8603 15.5582 18.9592C15.5424 19.098 15.5369 19.3019 15.5338 19.7913C15.5338 20.6053 15.5607 20.7535 15.608 20.9221C16.0247 22.3528 17.0224 23.4142 18.403 23.9075L18.6842 23.9983C18.8525 24.0455 19.0001 24.0724 19.8102 24.0725Z" fill="#00DDB3" stroke="#00DDB3" stroke-width="2"/>
</svg>
