<svg width="26" height="22" viewBox="0 0 26 22" fill="none" xmlns="http://www.w3.org/2000/svg">
<path d="M6.54753 0.0145473C6.5328 0.030262 6.39035 0.0459785 6.22826 0.0512161C5.98267 0.0564537 5.53569 0.129793 5.15256 0.234562C5.09853 0.250277 5.01011 0.265991 4.95608 0.276468C4.82837 0.292185 4.38631 0.465052 4.31263 0.527914C4.28316 0.548866 4.24386 0.554106 4.22913 0.533152C4.20948 0.517437 4.19474 0.527914 4.19474 0.564583C4.19474 0.601252 4.1751 0.616966 4.15054 0.601252C4.11124 0.57506 3.82144 0.70602 3.75267 0.779358C3.73794 0.795073 3.69864 0.810789 3.65935 0.821266C3.62005 0.831743 3.52673 0.884127 3.45305 0.94175C3.37937 0.994133 3.30569 1.04128 3.28605 1.04128C3.2271 1.04128 2.69662 1.44988 2.61312 1.55989C2.564 1.62275 2.50015 1.66989 2.46576 1.66989C2.43138 1.66989 2.22999 1.85847 2.01878 2.08897C1.80757 2.31946 1.65039 2.50804 1.66513 2.50804C1.68477 2.50804 1.63074 2.5709 1.54724 2.64948C1.46374 2.72805 1.39497 2.81187 1.39497 2.83282C1.39497 2.85378 1.33603 2.93759 1.26726 3.01617C1.1985 3.09475 1.11991 3.20999 1.09535 3.26761C1.07079 3.32524 1.00693 3.44048 0.957816 3.52954C0.81046 3.7705 0.633632 4.15291 0.648368 4.19481C0.65328 4.22101 0.638544 4.23672 0.613985 4.23672C0.57469 4.23672 0.505923 4.37816 0.486276 4.49864C0.466628 4.60341 0.343831 4.95439 0.299624 5.00677C0.275065 5.04344 0.265241 5.07487 0.284889 5.07487C0.299624 5.07487 0.279977 5.15869 0.240682 5.26869C0.201387 5.37346 0.176828 5.46775 0.191563 5.48347C0.206299 5.49919 0.191563 5.54109 0.15718 5.583C0.127709 5.61967 0.117885 5.66681 0.132621 5.68253C0.147356 5.69825 0.137533 5.7873 0.112973 5.87635C0.0196475 6.20637 0 6.42115 0 7.22263C0 8.10268 0.0196475 8.28603 0.142444 8.79416C0.186651 8.98274 0.23577 9.20276 0.245594 9.28657C0.255418 9.37039 0.284889 9.45944 0.319272 9.47515C0.348743 9.49611 0.368391 9.5223 0.358567 9.53278C0.334008 9.57468 0.525571 10.13 0.579601 10.1666C0.609073 10.1876 0.613985 10.2085 0.594337 10.2085C0.569778 10.2085 0.604161 10.2976 0.668015 10.4024C0.726958 10.5124 0.776077 10.6119 0.776077 10.6276C0.771165 10.6905 0.923433 11.0467 0.952904 11.0467C0.972552 11.0467 1.01676 11.1253 1.05605 11.2143C1.13956 11.4448 1.48339 12.0367 1.62583 12.2044C1.68477 12.2777 1.7388 12.3615 1.7388 12.3877C1.7388 12.4192 1.79283 12.4977 1.8616 12.5658C1.92546 12.6287 1.96966 12.7073 1.95493 12.7282C1.9451 12.7544 1.97457 12.8016 2.03352 12.8382C2.08755 12.8749 2.13175 12.9325 2.13175 12.964C2.13175 13.0006 2.16614 13.0373 2.20543 13.0582C2.24473 13.074 2.27911 13.1211 2.27911 13.163C2.27911 13.2049 2.31841 13.273 2.36752 13.3097C2.41664 13.3464 2.53453 13.4826 2.62785 13.6135C2.81942 13.8807 3.05028 14.1583 3.48252 14.635C3.64461 14.8131 3.82635 15.0174 3.88038 15.0855C4.07686 15.3265 4.55822 15.7875 4.59752 15.7717C4.62208 15.7665 4.63681 15.7927 4.63681 15.8294C4.63681 15.866 4.68102 15.9341 4.73505 15.9865C4.78908 16.0337 4.83329 16.0651 4.83329 16.0546C4.83329 16.0441 4.93644 16.1437 5.06906 16.2799C5.19677 16.4108 5.42271 16.6256 5.56516 16.7566C5.71251 16.8875 5.88443 17.0499 5.94828 17.118C6.00723 17.1861 6.06126 17.228 6.06126 17.2123C6.06126 17.1809 6.14967 17.2595 6.49841 17.5947C6.577 17.6681 6.68506 17.7624 6.74892 17.8043C6.84716 17.8724 7.16643 18.1448 7.24011 18.2233C7.32361 18.3124 7.67235 18.5743 7.74603 18.6057C7.79024 18.6215 7.82953 18.6634 7.82953 18.6948C7.82953 18.721 7.85409 18.7472 7.88356 18.7472C7.91303 18.7472 7.96215 18.7786 8.00145 18.81C8.15372 18.9672 8.37475 19.1401 8.39931 19.1243C8.41405 19.1139 8.45825 19.1505 8.49755 19.2029C8.53193 19.2553 8.56631 19.2815 8.56631 19.2605C8.56631 19.2448 8.63017 19.292 8.71367 19.3758C8.79226 19.4544 8.9347 19.5591 9.03294 19.6063C9.12627 19.6534 9.20486 19.7163 9.20486 19.7425C9.20486 19.7739 9.23433 19.7949 9.26871 19.7949C9.30801 19.7949 9.3866 19.8525 9.45045 19.9258C9.51431 19.9992 9.60763 20.0568 9.65675 20.0568C9.71078 20.0568 9.73534 20.0777 9.7206 20.1092C9.70587 20.1354 9.75008 20.172 9.81884 20.193C9.88761 20.2087 9.94164 20.2454 9.94164 20.2716C9.94164 20.2978 9.96129 20.3187 9.99076 20.3187C10.0153 20.3187 10.0792 20.3554 10.1234 20.3973C10.1725 20.4392 10.2265 20.4759 10.2511 20.4759C10.2707 20.4759 10.3493 20.5335 10.423 20.6068C10.4967 20.6802 10.5802 20.7378 10.6146 20.7378C10.6489 20.7378 10.6784 20.7587 10.6784 20.7849C10.6784 20.8111 10.7668 20.8687 10.8749 20.9159C10.983 20.963 11.0714 21.0259 11.0714 21.0573C11.0714 21.0835 11.0959 21.094 11.1205 21.0783C11.15 21.0626 11.1696 21.0678 11.1696 21.094C11.1696 21.1202 11.2433 21.1726 11.3317 21.2145C11.4152 21.2511 11.5036 21.3035 11.5184 21.3297C11.5527 21.3769 11.6215 21.424 11.9604 21.6231C12.0783 21.6912 12.1913 21.775 12.2109 21.8064C12.2306 21.8379 12.2502 21.8431 12.2502 21.8221C12.2502 21.7959 12.3141 21.8274 12.3976 21.8902L12.5449 22.0002L12.8691 21.8012C13.434 21.4554 13.5027 21.4083 13.5371 21.3454C13.5568 21.314 13.5764 21.3088 13.5764 21.335C13.5764 21.3612 13.6354 21.3192 13.7041 21.2459C13.7778 21.1673 13.8515 21.1202 13.8761 21.1359C13.9006 21.1516 13.9203 21.1411 13.9203 21.1097C13.9203 21.0783 13.9743 21.0416 14.0431 21.0207C14.1118 21.0049 14.1659 20.9683 14.1659 20.9473C14.1659 20.9264 14.2788 20.853 14.4114 20.7849C14.549 20.7168 14.657 20.6435 14.657 20.6225C14.657 20.5963 14.6914 20.5806 14.7307 20.5806C14.77 20.5806 14.8044 20.5544 14.8044 20.5282C14.8044 20.4968 14.829 20.4759 14.8633 20.4759C14.8928 20.4759 14.991 20.4182 15.0795 20.3449C15.1679 20.2716 15.2563 20.2139 15.271 20.2139C15.3103 20.2139 15.6591 19.9363 15.6787 19.8839C15.6885 19.863 15.718 19.8472 15.7475 19.8472C15.7769 19.8472 15.8801 19.7791 15.9832 19.6901C16.0864 19.6063 16.1895 19.5329 16.2141 19.5329C16.2338 19.5329 16.3123 19.4753 16.386 19.402C16.4597 19.3286 16.5432 19.271 16.5727 19.271C16.5972 19.271 16.6218 19.2501 16.6218 19.2239C16.6218 19.1977 16.6611 19.161 16.7102 19.1453C16.7593 19.1243 16.8428 19.072 16.8969 19.0196C16.946 18.9724 17.113 18.8362 17.2603 18.721C17.4077 18.6057 17.5501 18.4853 17.5698 18.4486C17.5894 18.4119 17.6336 18.3805 17.6631 18.3805C17.6926 18.3805 17.7663 18.3229 17.8252 18.2548C17.8891 18.1814 17.948 18.1395 17.9627 18.1552C17.9775 18.171 18.0217 18.1343 18.0561 18.0714C18.0904 18.0086 18.1445 17.9614 18.1789 17.9614C18.2132 17.9614 18.2427 17.9405 18.2427 17.9143C18.2427 17.8881 18.2722 17.8566 18.3115 17.8462C18.3802 17.8305 18.6553 17.6 18.9549 17.3066C19.0384 17.2176 19.1268 17.1495 19.1416 17.1495C19.1563 17.1495 19.2202 17.0971 19.284 17.029C19.5198 16.7775 19.7801 16.547 19.8243 16.547C19.8489 16.547 19.8587 16.5261 19.8391 16.4999C19.8243 16.4737 19.8538 16.437 19.9029 16.4213C20.0257 16.3794 22.3932 13.8754 22.3097 13.8754C22.2901 13.8754 22.3441 13.7969 22.4325 13.6973C22.6438 13.4668 22.9139 13.1054 22.9237 13.053C22.9286 13.0111 23.0613 12.8382 23.1939 12.6916C23.2283 12.6549 23.2577 12.6025 23.2577 12.5815C23.2577 12.5606 23.3019 12.482 23.356 12.4192C23.4591 12.2882 24.0878 11.2248 24.0878 11.1776C24.0878 11.1619 24.1419 11.0572 24.2106 10.9419C24.2794 10.8267 24.3776 10.6067 24.4317 10.4547C24.4906 10.3081 24.5496 10.1352 24.5741 10.0776C24.5987 10.02 24.6527 9.88899 24.6969 9.78422C24.7411 9.67945 24.7853 9.53802 24.7952 9.46992C24.8099 9.40182 24.8197 9.34419 24.8246 9.34419C24.8295 9.34419 24.8394 9.30752 24.8492 9.26562C24.859 9.22371 24.8836 9.12942 24.8983 9.05608C24.913 8.98274 24.9327 8.89893 24.9376 8.87274C24.9474 8.8413 24.9622 8.79416 24.9818 8.76797C25.085 8.57938 25.139 6.80355 25.0506 6.25352C25.0309 6.10684 25.0064 5.94445 24.9965 5.88683C24.9769 5.74015 24.7215 4.80247 24.6724 4.70818C24.6527 4.66628 24.6036 4.54579 24.5643 4.44626C24.3875 3.99052 24.358 3.92242 24.3187 3.92242C24.2941 3.92242 24.2892 3.90146 24.3089 3.87527C24.3236 3.84908 24.2794 3.76003 24.2106 3.68145C24.1419 3.60287 24.0878 3.51382 24.0878 3.47715C24.0878 3.44048 24.0338 3.35143 23.965 3.27285C23.8963 3.19427 23.8079 3.06331 23.7686 2.97426C23.7244 2.89045 23.5868 2.70186 23.4591 2.56042C23.3314 2.41899 23.1644 2.21469 23.0809 2.11516C23.0023 2.01563 22.9139 1.93181 22.8844 1.93181C22.855 1.93181 22.8058 1.88467 22.7715 1.82704C22.742 1.76942 22.6192 1.65941 22.5062 1.58608C22.3932 1.5075 22.2459 1.39225 22.182 1.32939C22.1133 1.26129 21.9757 1.167 21.8726 1.10938C21.7694 1.057 21.681 0.999372 21.681 0.973181C21.681 0.952227 21.6368 0.936512 21.5828 0.936512C21.5288 0.936512 21.4845 0.910318 21.4845 0.878889C21.4845 0.852695 21.4649 0.842218 21.4354 0.857935C21.406 0.87365 21.3863 0.863173 21.3863 0.836981C21.3863 0.80555 21.3667 0.779358 21.3421 0.779358C21.3175 0.779358 21.1702 0.716497 21.013 0.63792C20.8509 0.559343 20.7134 0.491245 20.6986 0.486006C20.6839 0.486006 20.6102 0.454575 20.5316 0.417906C20.4531 0.386477 20.345 0.349806 20.2861 0.334091C20.232 0.323614 20.1829 0.313137 20.1829 0.307899C20.1829 0.297422 20.0994 0.276468 19.9127 0.234562C19.844 0.218845 19.7359 0.192654 19.6672 0.1717C18.8616 -0.0273609 17.5452 -0.0273609 16.7937 0.1717C16.6513 0.213608 16.3123 0.307899 16.2534 0.328854C16.2288 0.339331 16.1404 0.360283 16.0569 0.386477C15.9783 0.407429 15.8654 0.454575 15.8113 0.486006C15.7573 0.512197 15.7033 0.543629 15.6885 0.543629C15.6738 0.543629 15.6149 0.57506 15.5559 0.611729C15.4921 0.648397 15.4429 0.664112 15.4429 0.648397C15.4429 0.63792 15.3349 0.695543 15.2023 0.779358C15.0745 0.868412 14.9468 0.936512 14.9174 0.936512C14.8584 0.936512 14.2641 1.35559 14.0136 1.5756C13.6059 1.92657 13.0558 2.53423 12.6726 3.05284C12.5351 3.23618 12.4467 3.29381 12.4467 3.18904C12.4467 3.04236 11.2924 1.62798 11.2285 1.69608C11.2187 1.70656 11.1598 1.65941 11.1008 1.59655C11.0468 1.52845 10.9486 1.46035 10.8896 1.4394C10.8356 1.41845 10.7717 1.36606 10.757 1.32416C10.7423 1.28225 10.7079 1.25606 10.6833 1.27177C10.6588 1.28749 10.6244 1.26653 10.6097 1.21939C10.5949 1.17748 10.5605 1.15652 10.5311 1.17224C10.5065 1.18796 10.4819 1.17748 10.4819 1.15129C10.4819 1.11986 10.4476 1.09366 10.4083 1.09366C10.3739 1.09366 10.3199 1.06223 10.3002 1.02556C10.2806 0.988895 10.1823 0.926035 10.089 0.884127C9.99567 0.842218 9.90726 0.795073 9.89252 0.77412C9.83358 0.690306 9.01329 0.344568 8.73823 0.292185C8.6842 0.281708 8.60561 0.255514 8.5614 0.234562C8.51719 0.213608 8.41896 0.187416 8.34037 0.176939C8.26178 0.166462 8.19792 0.155985 8.19792 0.150745C8.19792 0.0878849 6.60156 -0.0430756 6.54753 0.0145473Z" fill="#00DDB3"/>
</svg>
