<svg width="26" height="25" viewBox="0 0 26 25" fill="none" xmlns="http://www.w3.org/2000/svg">
<path d="M22.2379 7.07546L16.0814 2.52309C14.2839 1.20357 11.8392 1.20357 10.0416 2.52309L3.88517 7.07546C2.69868 7.93508 1.99272 9.30953 1.9846 10.7757V19.0167C2.06085 21.6639 4.26054 23.7512 6.90509 23.6858H19.2296C21.8697 23.7446 24.0622 21.6592 24.1385 19.0167V10.7757C24.1303 9.30953 23.4244 7.93508 22.2379 7.07546Z" stroke="#969696" stroke-width="2"/>
<path d="M18.2044 18.6104H7.91867C7.44528 18.6104 7.06152 18.1626 7.06152 17.6104C7.06152 17.0581 7.44528 16.6104 7.91867 16.6104H18.2044C18.6778 16.6104 19.0615 17.0581 19.0615 17.6104C19.0615 18.1626 18.6778 18.6104 18.2044 18.6104Z" fill="#969696"/>
</svg>
