<svg width="27" height="27" viewBox="0 0 27 27" fill="none" xmlns="http://www.w3.org/2000/svg">
<path d="M22.5763 7.56765L16.4199 3.01527C14.6224 1.69576 12.1776 1.69576 10.3801 3.01527L4.22363 7.56765C3.03714 8.42726 2.33117 9.80172 2.32306 11.2679V19.5089C2.3993 22.1561 4.59899 24.2434 7.24355 24.178H19.5681C22.2081 24.2368 24.4006 22.1514 24.4769 19.5089V11.2679C24.4688 9.80172 23.7628 8.42726 22.5763 7.56765Z" fill="#00DDB3" stroke="#00DDB3" stroke-width="2"/>
<path d="M18.5429 19.1025H8.25714C7.78375 19.1025 7.39999 18.6548 7.39999 18.1025C7.39999 17.5503 7.78375 17.1025 8.25714 17.1025H18.5429C19.0162 17.1025 19.4 17.5503 19.4 18.1025C19.4 18.6548 19.0162 19.1025 18.5429 19.1025Z" fill="white"/>
</svg>
