<svg width="27" height="27" viewBox="0 0 27 27" fill="none" xmlns="http://www.w3.org/2000/svg">
<path d="M11.7147 2.53127C9.56398 2.99069 7.92826 4.55573 7.36787 6.69631C7.26185 7.09514 7.2467 7.26174 7.2467 8.08465C7.2467 8.87727 7.26185 9.08426 7.35777 9.45281C7.87272 11.4722 9.47815 13.0877 11.4824 13.5976C12.1084 13.7542 13.3504 13.7794 13.9865 13.6481C16.2735 13.1685 17.9597 11.4924 18.4342 9.22057C18.6362 8.25126 18.5403 7.04466 18.1768 6.0501C17.5306 4.27806 15.9352 2.93011 14.0117 2.52622C13.4009 2.40001 12.3154 2.40001 11.7147 2.53127Z" fill="#00DDB3" stroke="#00DDB3" stroke-width="0.1"/>
<path d="M9.59432 14.9445C8.35743 15.1464 7.77685 15.3181 7.01452 15.6967C6.28249 16.0653 5.68676 16.4995 5.07589 17.1103C4.21764 17.9635 3.6421 18.8975 3.24327 20.0587C3.08172 20.5383 3.06152 20.6493 3.06152 21.1239C3.06152 21.5278 3.08677 21.7398 3.16754 22.0074C3.46036 22.9464 4.19239 23.6835 5.11123 23.9763L5.51006 24.1025H12.8759H20.2417L20.6405 23.9763C22.0743 23.522 22.9477 22.0427 22.6498 20.5686C22.5993 20.3363 22.4731 19.9173 22.3621 19.6396C21.4331 17.2971 19.4541 15.6261 16.9248 15.0556C16.4502 14.9496 16.3291 14.9445 13.0778 14.9344C11.23 14.9294 9.665 14.9344 9.59432 14.9445Z" fill="#00DDB3" stroke="#00DDB3" stroke-width="0.1"/>
</svg>
