<svg width="21" height="23" viewBox="0 0 21 23" fill="none" xmlns="http://www.w3.org/2000/svg">
<path d="M9.71465 1.03909C7.56398 1.4985 5.92826 3.06355 5.36787 5.20412C5.26185 5.60296 5.2467 5.76956 5.2467 6.59247C5.2467 7.38509 5.26185 7.59208 5.35777 7.96062C5.87272 9.98003 7.47815 11.5956 9.48242 12.1055C10.1084 12.262 11.3504 12.2872 11.9865 12.1559C14.2735 11.6763 15.9597 10.0002 16.4342 7.72839C16.6362 6.75907 16.5403 5.55247 16.1768 4.55791C15.5306 2.78588 13.9352 1.43792 12.0117 1.03404C11.4009 0.907824 10.3154 0.907824 9.71465 1.03909ZM12.0117 2.75559C13.1325 3.10393 14.011 3.87131 14.5007 4.92645C14.7632 5.48684 14.8642 5.95635 14.8642 6.60761C14.8642 8.12722 14.021 9.48528 12.668 10.1567C12.0521 10.4596 11.5473 10.5808 10.891 10.5808C10.2397 10.5808 9.77019 10.4798 9.2098 10.2173C8.3566 9.82353 7.72553 9.21265 7.31155 8.3847C7.00864 7.76373 6.88748 7.26392 6.88748 6.59752C6.88748 5.48684 7.28126 4.53267 8.04864 3.76529C8.39194 3.42199 8.65446 3.2352 9.13912 2.99287C9.98727 2.56374 11.0929 2.47792 12.0117 2.75559Z" fill="#969696" stroke="#969696" stroke-width="0.2"/>
<path d="M7.59432 13.4523C6.35743 13.6543 5.77685 13.8259 5.01452 14.2045C4.28249 14.5731 3.68676 15.0073 3.07589 15.6181C2.21764 16.4713 1.6421 17.4053 1.24327 18.5665C1.08172 19.0461 1.06152 19.1572 1.06152 19.6317C1.06152 20.0356 1.08677 20.2476 1.16754 20.5152C1.46036 21.4542 2.19239 22.1913 3.11123 22.4841L3.51006 22.6104H10.8759H18.2417L18.6405 22.4841C20.0743 22.0298 20.9477 20.5506 20.6498 19.0764C20.5993 18.8441 20.4731 18.4251 20.3621 18.1475C19.4331 15.8049 17.4541 14.1339 14.9248 13.5634C14.4502 13.4574 14.3291 13.4523 11.0778 13.4422C9.23004 13.4372 7.665 13.4422 7.59432 13.4523ZM14.5108 15.2042C16.6211 15.6686 18.272 17.1327 18.9283 19.1218C19.1201 19.7024 18.9838 20.2729 18.5698 20.6364C18.1659 20.9898 18.6203 20.9696 10.8254 20.9696H3.78268L3.55045 20.8636C2.80831 20.5203 2.56599 19.8387 2.87395 18.9754C3.38385 17.5669 4.38346 16.436 5.71122 15.7544C6.42811 15.391 6.92792 15.2445 7.92248 15.1183C8.0083 15.1082 9.43703 15.1032 11.103 15.1133C13.6879 15.1234 14.1877 15.1335 14.5108 15.2042Z" fill="#969696" stroke="#969696" stroke-width="0.2"/>
</svg>
